<svg width="35" height="32" viewBox="0 0 35 32" fill="none" xmlns="http://www.w3.org/2000/svg">
<path d="M6.53427 12.9042L9.28979 22.0367C9.3847 22.3513 9.43216 22.5086 9.54058 22.6032C9.58941 22.6458 9.64605 22.6785 9.70735 22.6995C9.84348 22.7461 10.0034 22.7085 10.3233 22.6334L19.6101 20.4535C22.223 19.8402 23.9407 17.3401 23.5762 14.681L23.5076 14.181C23.0715 11.0001 19.4374 9.39317 16.7909 11.2111C16.4171 11.4679 15.9125 11.1766 15.948 10.7244C16.1991 7.52354 12.9905 5.17978 10.0176 6.39259L9.55033 6.58322C7.06525 7.59703 5.75898 10.3347 6.53427 12.9042Z" stroke="#0180A8"/>
<path d="M11.5343 15.9042L14.2898 25.0367C14.3847 25.3513 14.4322 25.5086 14.5406 25.6032C14.5894 25.6458 14.646 25.6785 14.7074 25.6995C14.8435 25.7461 15.0034 25.7085 15.3233 25.6334L24.6101 23.4535C27.223 22.8402 28.9407 20.3401 28.5762 17.681L28.5076 17.181C28.0715 14.0001 24.4374 12.3932 21.7909 14.2111C21.4171 14.4679 20.9125 14.1766 20.948 13.7244C21.1991 10.5235 17.9905 8.17978 15.0176 9.39259L14.5503 9.58322C12.0652 10.597 10.759 13.3347 11.5343 15.9042Z" stroke="#E62701"/>
</svg>
