<svg width="26" height="21" viewBox="0 0 26 21" fill="none" xmlns="http://www.w3.org/2000/svg">
<path d="M23.4612 0.995817L12.9949 1.02093L2.52863 0.970703H2.52353C1.11647 0.970703 0 2.2716 0 3.89897V17.5307C0 19.1581 1.11647 20.459 2.52353 20.459H23.4765C24.8835 20.459 26 19.1581 26 17.5307V3.89897C26 2.2716 24.8937 0.995817 23.4612 0.995817ZM22.6404 3.00492L13.2906 11.4281L13.2549 11.4582L13.2243 11.4934C13.1122 11.6139 12.9796 11.629 12.9082 11.629C12.8369 11.629 12.7043 11.6089 12.5973 11.4833L12.5667 11.4482L3.6298 2.96474L12.9949 3.02501L22.6404 3.00492ZM23.4765 18.4499H2.52353C2.3451 18.4499 2.03922 18.1184 2.03922 17.5307V4.22042L11.0933 12.8395C11.5522 13.3417 12.1996 13.6331 12.8878 13.6431H12.9184C13.5965 13.6431 14.2286 13.3669 14.6925 12.8847L23.971 4.51677V17.5307C23.9608 18.1184 23.6549 18.4499 23.4765 18.4499Z" fill="#FEFFFE"/>
</svg>
