<svg width="25" height="25" viewBox="0 0 25 25" fill="none" xmlns="http://www.w3.org/2000/svg">
<path d="M23.61 16.7233L21.41 14.5558C20.7542 13.9148 19.869 13.5535 18.9453 13.5496C18.0215 13.5458 17.1333 13.8997 16.472 14.5351C16.1191 14.8847 15.6536 15.1023 15.1555 15.1503C14.6574 15.1983 14.1579 15.0738 13.743 14.7981C12.1052 13.7213 10.6982 12.3377 9.60197 10.7262C9.32713 10.3128 9.20531 9.81871 9.25704 9.32717C9.30878 8.83562 9.53089 8.37667 9.88597 8.02763C10.5251 7.37548 10.8797 6.50276 10.8739 5.59626C10.8681 4.68976 10.5023 3.82151 9.85497 3.17734L7.65497 1.00982C6.99631 0.363125 6.10434 0 5.17447 0C4.24459 0 3.35262 0.363125 2.69397 1.00982L2.06097 1.63446C-1.23903 4.88573 -0.992035 11.7213 5.87397 18.4819C10.014 22.5618 14.181 24.2702 17.56 24.2702C18.5546 24.3028 19.5459 24.1401 20.4761 23.7914C21.4063 23.4428 22.2568 22.9153 22.978 22.2396L23.612 21.615C24.2696 20.9657 24.6387 20.0859 24.6383 19.1687C24.638 18.2515 24.2681 17.372 23.61 16.7233ZM22.196 20.2219L21.562 20.8465C18.962 23.4081 13.223 22.9401 7.28597 17.0898C1.34897 11.2395 0.872966 5.5813 3.47297 3.0197L4.10197 2.39605C4.38517 2.11803 4.76867 1.96193 5.16847 1.96193C5.56826 1.96193 5.95176 2.11803 6.23497 2.39605L8.43497 4.56356C8.71303 4.83889 8.87086 5.21038 8.87479 5.59877C8.87871 5.98715 8.72841 6.36167 8.45597 6.6424C7.78024 7.31238 7.35874 8.19081 7.26207 9.1305C7.1654 10.0702 7.39943 11.0141 7.92497 11.804C9.17051 13.6404 10.7722 15.2161 12.638 16.4405C13.4373 16.9584 14.3929 17.1903 15.3449 17.0976C16.297 17.0049 17.1879 16.5932 17.869 15.9312C18.1534 15.6596 18.5346 15.5087 18.9306 15.5111C19.3267 15.5135 19.706 15.669 19.987 15.944L22.187 18.1115C22.3288 18.2492 22.4415 18.4131 22.5188 18.5939C22.596 18.7746 22.6362 18.9687 22.637 19.1648C22.6379 19.361 22.5993 19.5553 22.5236 19.7367C22.4479 19.9181 22.3366 20.083 22.196 20.2219Z" fill="#FEFFFE"/>
</svg>
